# xmcd
#
# Track frame offsets:
#	150
#	14445
#	31725
#	44573
#	60572
#	71291
#	87694
#	105046
#	122398
#	139220
#	157166
#
# Disc length: 2298 seconds
#
# Revision: 1
# Processed by: cddbd v1.5PL3 Copyright (c) Steve Scherf et al.
# Submitted via: audiograbber 1.83.01
#
DISCID=8b08f80b
DTITLE=James\\Dean - Over The Edge
DYEAR=1900
DGENRE=Country
TTITLE0=Don't Talk To Me About Her
TTITLE1=Livin' And Livin' Right
TTITLE2=Joe And Lorene
TTITLE3=Fourth And Main
TTITLE4=Memory Of Myself
TTITLE5=Nevada Dust
TTITLE6=Everybody's Talkin'
TTITLE7=Just To Know Your Love
TTITLE8=Fire Red Thunderbird
TTITLE9=American Dream
TTITLE10=Over The Edge
EXTD=James Watson and Steve Dean
EXTT0=
EXTT1=
EXTT2=
EXTT3=
EXTT4=
EXTT5=
EXTT6=
EXTT7=
EXTT8=
EXTT9=
EXTT10=
PLAYORDER=
